<svg xmlns="http://www.w3.org/2000/svg" xmlns:xlink="http://www.w3.org/1999/xlink" width="128" height="128"><linearGradient id="e" x1="176" x2="495" y1="799.964" y2="799.964" gradientTransform="matrix(.325 0 0 .24306 -45.2 -104.436)" gradientUnits="userSpaceOnUse"><stop offset="0"/><stop offset=".039" stop-color="#424048"/><stop offset=".086" stop-color="#241f31"/><stop offset=".912" stop-color="#241f31"/><stop offset=".959" stop-color="#424048"/><stop offset="1"/></linearGradient><linearGradient id="g" x1="177" x2="496" y1="619.964" y2="619.964" gradientTransform="matrix(.325 0 0 .24306 -45.2 -98.436)" gradientUnits="userSpaceOnUse"><stop offset="0" stop-color="#424048"/><stop offset=".038" stop-color="#f6f5f4"/><stop offset=".077" stop-color="#949390"/><stop offset=".919" stop-color="#d5d3cf"/><stop offset=".96" stop-color="#f6f5f4"/><stop offset="1" stop-color="#424048"/></linearGradient><linearGradient id="h" x1="347" x2="323" y1="217" y2="-172" gradientTransform="matrix(0 .25 -.25 0 71 2)" gradientUnits="userSpaceOnUse"><stop offset="0" stop-color="#f6f5f4"/><stop offset="1" stop-color="#fff"/></linearGradient><linearGradient id="a" gradientUnits="userSpaceOnUse"><stop offset="0" stop-opacity=".251"/><stop offset="1" stop-opacity=".031"/></linearGradient><radialGradient xlink:href="#a" id="i" cx="128" cy="199.581" r="16" gradientTransform="matrix(-.25 0 0 -.25 52 85)"/><linearGradient id="b" gradientUnits="userSpaceOnUse"><stop offset="0" stop-color="#949390"/><stop offset="1" stop-color="#424048"/></linearGradient><radialGradient xlink:href="#b" id="j" cx="127.937" cy="200.072" r="8" gradientTransform="matrix(-.34391 0 0 -.34391 64 103.868)"/><linearGradient id="k" x1="28" x2="100" y1="232" y2="232" gradientTransform="matrix(0 -1 -1 0 296 130)" gradientUnits="userSpaceOnUse"><stop offset="0" stop-color="#c0bfbc"/><stop offset="1" stop-color="#f6f5f4"/></linearGradient><radialGradient xlink:href="#a" id="l" cx="128" cy="199.581" r="16" gradientTransform="matrix(-.25 0 0 -.25 52 149)"/><radialGradient xlink:href="#b" id="m" cx="127.937" cy="200.072" r="8" gradientTransform="matrix(-.34391 0 0 -.34391 64 167.868)"/><radialGradient xlink:href="#a" id="n" cx="128" cy="199.581" r="16" gradientTransform="rotate(180 56 74.5)scale(.25)"/><radialGradient xlink:href="#b" id="o" cx="127.937" cy="200.072" r="8" gradientTransform="matrix(-.34391 0 0 -.34391 124 167.868)"/><radialGradient xlink:href="#a" id="p" cx="128" cy="199.581" r="16" gradientTransform="rotate(180 70 74.5)scale(.25)"/><radialGradient xlink:href="#b" id="q" cx="127.937" cy="200.072" r="8" gradientTransform="matrix(-.34391 0 0 -.34391 152 167.868)"/><radialGradient xlink:href="#a" id="r" cx="128" cy="199.581" r="16" gradientTransform="matrix(-.25 0 0 -.25 140 85)"/><radialGradient xlink:href="#b" id="t" cx="127.937" cy="200.072" r="8" gradientTransform="matrix(-.34391 0 0 -.34391 152 103.868)"/><radialGradient xlink:href="#a" id="v" cx="128" cy="199.581" r="16" gradientTransform="matrix(-.25 0 0 -.25 112 85)"/><radialGradient xlink:href="#b" id="w" cx="127.937" cy="200.072" r="8" gradientTransform="matrix(-.34391 0 0 -.34391 124 103.868)"/><filter id="c" width="100%" height="100%" x="0%" y="0%"><feColorMatrix in="SourceGraphic" values="0 0 0 0 1 0 0 0 0 1 0 0 0 0 1 0 0 0 1 0"/></filter><mask id="x"><g filter="url(#c)"><path fill-opacity=".1" d="M0 0h128v128H0z"/></g></mask><linearGradient id="y" x1="49.925" x2="68.358" y1="62.728" y2="25.463" gradientUnits="userSpaceOnUse"><stop offset="0" stop-color="#47454b"/><stop offset="1" stop-color="#dfdee0"/></linearGradient><linearGradient id="z" x1="55.545" x2="67.43" y1="64.827" y2="48.849" gradientUnits="userSpaceOnUse"><stop offset="0" stop-color="#5e5c64"/><stop offset="1" stop-color="#77767b"/></linearGradient><path fill="url(#e)" d="M22.398 26h83.204C111.344 26 116 29.582 116 34v72c0 4.418-4.656 8-10.398 8H22.398C16.656 114 12 110.418 12 106V34c0-4.418 4.656-8 10.398-8m0 0"/><path fill="url(#g)" d="M22.398 26h83.204C111.344 26 116 29.582 116 34v66c0 4.418-4.656 8-10.398 8H22.398C16.656 108 12 104.418 12 100V34c0-4.418 4.656-8 10.398-8m0 0"/><path fill="url(#h)" d="M116 34v64c0 4.434-3.773 8-8.457 8H20.457C15.773 106 12 102.434 12 98V34c0-4.434 3.773-8 8.457-8h87.086c4.684 0 8.457 3.566 8.457 8m0 0"/><path fill="url(#i)" d="M16 34a4 4 0 1 1 8 0 4 4 0 0 1-8 0m0 0"/><path fill="url(#j)" d="M18 34a2 2 0 1 1 2 2c-1.105 0-2-.895-2-2m0 0"/><path fill="url(#k)" d="M52 30c-19.883 0-36 16.117-36 36s16.117 36 36 36c8.863-.016 17.406-2.54 24-8.465A6.02 6.02 0 0 1 80 92c3.313 0 6 2.688 6 6 0 2.215 1.785 4 4 4h8c2.215 0 4-1.785 4-4 0-3.312 2.688-6 6-6 2.215 0 4-1.785 4-4V44c0-2.215-1.785-4-4-4-3.312 0-6-2.687-6-6 0-2.215-1.785-4-4-4h-8c-2.215 0-4 1.785-4 4 0 3.313-2.687 6-6 6a6 6 0 0 1-4-1.54c-6.59-5.92-15.137-8.444-24-8.46m-2 28c4.402 0 8 3.598 8 8s-3.598 8-8 8-8-3.598-8-8 3.598-8 8-8m0 0"/><path fill="url(#l)" d="M16 98a4 4 0 1 1 8 0 4 4 0 0 1-8 0m0 0"/><path fill="url(#m)" d="M18 98a2 2 0 1 1 2 2c-1.105 0-2-.895-2-2m0 0"/><path fill="url(#n)" d="M76 98a4 4 0 1 1 8 0 4 4 0 0 1-8 0m0 0"/><path fill="url(#o)" d="M78 98a2 2 0 1 1 2 2c-1.105 0-2-.895-2-2m0 0"/><path fill="url(#p)" d="M104 98a4 4 0 1 1 8 0 4 4 0 0 1-8 0m0 0"/><path fill="url(#q)" d="M106 98a2 2 0 1 1 2 2c-1.105 0-2-.895-2-2m0 0"/><path fill="url(#r)" d="M104 34a4 4 0 1 1 8 0 4 4 0 0 1-8 0m0 0"/><path fill="url(#t)" d="M106 34a2 2 0 1 1 2 2c-1.105 0-2-.895-2-2m0 0"/><path fill="url(#v)" d="M76 34a4 4 0 1 1 8 0 4 4 0 0 1-8 0m0 0"/><path fill="url(#w)" d="M78 34a2 2 0 1 1 2 2c-1.105 0-2-.895-2-2m0 0"/><g clip-path="url(#u)" mask="url(#x)" transform="translate(-8 -16)"><path d="M67 27.992c-1.105 0-2 .895-2 2v45.602L54.45 65.043a7 7 0 0 0-4.95-2.05H42c-1.105 0-2 .894-2 2v5c0 1.859.738 3.636 2.05 4.948l25 25c2.72 2.72 7.184 2.72 9.9 0l25-25a7 7 0 0 0 2.05-4.945v-5.004c0-1.101-.895-2-2-2h-7.5a7 7 0 0 0-4.95 2.055L79 75.594V29.992c0-1.101-.895-2-2-2zm0 0"/></g><path fill="url(#y)" d="M59 8c-1.105 0-2 .895-2 2v45.602L46.45 45.05A7 7 0 0 0 41.5 43H34c-1.105 0-2 .895-2 2v5c0 1.855.738 3.637 2.05 4.95l25 25c2.72 2.714 7.184 2.714 9.9 0l25-25A7 7 0 0 0 96 50v-5c0-1.105-.895-2-2-2h-7.5a7 7 0 0 0-4.95 2.05L71 55.603V10c0-1.105-.895-2-2-2zm0 0"/><path fill="url(#z)" d="M59 9.992v50.43L45.035 46.457a5 5 0 0 0-3.535-1.465H34v5c0 1.328.527 2.598 1.465 3.535l25 25a5 5 0 0 0 7.07 0l25-25A5 5 0 0 0 94 49.992v-5h-7.5a5 5 0 0 0-3.535 1.465L69 60.422V9.992zm0 0"/></svg>